# xmcd
#
# Track frame offsets: 
#        187
#        2593
#        30823
#        57457
#        84535
#        86449
#        92142
#        96057
#        112285
#        122708
#        129160
#        134728
#
# Disc length: 1974 seconds
#
# Revision: 3
# Processed by: cddbd v1.5.2PL0 Copyright (c) Steve Scherf et al.
# Submitted via: ExactAudioCopy v1.3
#
DISCID=9507b40c
DTITLE=Kraftwerk - [CD 2) Radioactivity
DYEAR=2017
DGENRE=Electro-Pop
TTITLE0=Geiger Counter
TTITLE1=Radioactivity
TTITLE2=Radioland
TTITLE3=Airwaves
TTITLE4=Intermission
TTITLE5=News
TTITLE6=The Voice Of Energy
TTITLE7=Antenna
TTITLE8=Radio Stars
TTITLE9=Uranium
TTITLE10=Transistor
TTITLE11=Ohm Sweet Ohm
EXTD=
EXTT0=
EXTT1=
EXTT2=
EXTT3=
EXTT4=
EXTT5=
EXTT6=
EXTT7=
EXTT8=
EXTT9=
EXTT10=
EXTT11=
PLAYORDER=
